<?xml version="1.0" encoding="UTF-8"?>
<svg xmlns="http://www.w3.org/2000/svg" xmlns:xlink="http://www.w3.org/1999/xlink" width="512pt" height="512pt" viewBox="0 0 512 512" version="1.1">
<g id="surface8767241">
<path style=" stroke:none;fill-rule:nonzero;fill:rgb(38.431373%,38.431373%,42.745098%);fill-opacity:1;" d="M 200.0625 448.054688 C 200.039062 445.113281 200.015625 432.359375 199.992188 420.425781 L 199.96875 408.023438 C 146.136719 415.34375 133.105469 377.785156 132.960938 377.382812 C 125.488281 358.441406 115.273438 353.023438 114.832031 352.800781 L 113.839844 352.222656 C 110.136719 349.695312 100.3125 342.96875 103.105469 334.121094 C 105.625 326.144531 115.390625 325.320312 119.832031 325.464844 C 144.425781 327.183594 156.871094 349.289062 157.382812 350.222656 C 169.9375 371.734375 189.097656 369.511719 201.457031 364.976562 C 202.609375 359.472656 204.390625 354.414062 206.726562 349.953125 C 167.078125 342.921875 122.160156 321.832031 122.160156 245.121094 C 122.160156 224.054688 128.71875 205.441406 141.6875 189.6875 C 138.792969 180.039062 135.496094 160.359375 145.257812 135.566406 L 146.648438 132.03125 L 150.265625 130.878906 C 153.59375 129.785156 171.769531 125.886719 209.136719 150.34375 C 224.558594 146.390625 240.886719 144.351562 257.726562 144.273438 C 274.648438 144.351562 290.992188 146.390625 306.449219 150.34375 C 343.785156 125.878906 361.917969 129.824219 365.257812 130.878906 L 368.863281 132.039062 L 370.257812 135.558594 C 380.054688 160.34375 376.761719 180.03125 373.863281 189.6875 C 386.808594 205.390625 393.367188 224.015625 393.367188 245.121094 C 393.367188 321.847656 348.398438 342.871094 308.664062 349.816406 C 313.167969 358.335938 315.609375 369.03125 315.609375 380.839844 C 315.609375 394.304688 315.550781 438.472656 315.488281 448.054688 L 299.488281 447.945312 C 299.550781 438.375 299.609375 394.28125 299.609375 380.832031 C 299.609375 361.296875 292.0625 352.65625 288.808594 349.839844 L 274.96875 337.863281 L 293.160156 335.839844 C 334.800781 331.214844 377.359375 316.808594 377.359375 245.113281 C 377.359375 226.472656 371.144531 210.222656 358.878906 196.824219 L 355.441406 193.070312 L 357.375 188.375 C 358.703125 185.167969 364.527344 168.839844 357.03125 146.046875 C 350.96875 146.40625 336.488281 149.265625 312.359375 165.625 L 309.289062 167.695312 L 305.726562 166.710938 C 290.824219 162.566406 274.222656 160.34375 257.71875 160.265625 C 241.304688 160.34375 224.726562 162.566406 209.847656 166.710938 L 206.289062 167.695312 L 203.222656 165.625 C 179.070312 149.273438 164.558594 146.390625 158.472656 146.03125 C 150.992188 168.839844 156.824219 185.167969 158.152344 188.375 L 160.085938 193.070312 L 156.65625 196.824219 C 144.367188 210.273438 138.144531 226.519531 138.144531 245.113281 C 138.144531 316.777344 180.625 331.273438 222.175781 336 L 240.191406 338.046875 L 226.527344 349.96875 C 223.550781 352.566406 218.289062 358.863281 216.496094 371.785156 L 215.894531 376.175781 L 211.847656 377.992188 C 201.28125 382.726562 165.136719 395.289062 143.464844 358.113281 C 143.34375 357.910156 139.113281 350.550781 131.449219 345.65625 C 136.617188 350.769531 142.910156 359.039062 147.992188 371.953125 C 148.519531 373.472656 158.847656 400.929688 206.230469 390.664062 L 215.878906 388.566406 L 215.976562 420.390625 C 216 432.289062 216.023438 445 216.046875 447.945312 Z M 200.0625 448.054688 "/>
<path style=" stroke:none;fill-rule:nonzero;fill:rgb(17.647059%,17.647059%,19.607843%);fill-opacity:1;" d="M 256 464 C 141.304688 464 48 370.695312 48 256 C 48 141.304688 141.304688 48 256 48 C 370.695312 48 464 141.304688 464 256 C 464 370.695312 370.695312 464 256 464 Z M 256 64 C 150.136719 64 64 150.136719 64 256 C 64 361.863281 150.136719 448 256 448 C 361.863281 448 448 361.863281 448 256 C 448 150.136719 361.863281 64 256 64 Z M 256 64 "/>
</g>
</svg>
